<?xml version="1.0" encoding="utf-8"?>
<!-- Generator: Adobe Illustrator 24.1.2, SVG Export Plug-In . SVG Version: 6.00 Build 0)  -->
<svg version="1.1" id="Layer_1" xmlns="http://www.w3.org/2000/svg" xmlns:xlink="http://www.w3.org/1999/xlink" x="0px" y="0px"
	 viewBox="0 0 371 59.9" style="enable-background:new 0 0 371 59.9;" xml:space="preserve">
<style type="text/css">
	.st0{fill:#F500FF;}
	.st1{fill:#FFFFFF;}
</style>
<polygon class="st0" points="52.8,0.1 63.6,0.1 63.6,23.7 78,23.7 78,0.1 88.7,0.1 88.7,59.9 78,59.9 78,33 63.6,33 63.6,59.9 
	52.8,59.9 "/>
<g>
	<g>
	</g>
</g>
<path class="st1" d="M11.5,59.9L0.1,0.1h11.5c2.2,14.1,5.1,33.7,5.9,44.9h0.1c1.8-11.6,6-31.9,8.4-44.9h9.5
	c2.2,11.8,6.6,32.9,8.1,44.3h0.2c1.3-12.5,4.9-32.9,6.4-44.3h10.7L48.8,59.9H38.2c-2.3-12.5-6.2-30.7-7.8-42.2h-0.2
	c-1.7,11.7-5.8,30.7-8.1,42.2H11.5z"/>
<polygon class="st1" points="126.7,33.3 107.5,33.3 107.5,50.7 129,50.7 127.7,59.9 96.9,59.9 96.9,0.1 127.6,0.1 127.6,9.4 
	107.5,9.4 107.5,24 126.7,24 "/>
<g>
	<path class="st1" d="M170.3,9.3h-12.7V0h36.1v9.3H181v50.2h-10.7V9.3z"/>
	<path class="st1" d="M199.5,0h10.7v23.5h14.3V0h10.7v59.5h-10.7V32.7h-14.3v26.7h-10.7V0z"/>
	<path class="st1" d="M275.2,33h-19.1v17.3h21.4l-1.3,9.2h-30.6V0h30.5v9.3h-20v14.5h19.1V33z"/>
	<path class="st1" d="M294.7,34.1v25.4h-10.6V0h18.2c10.8,0,16.9,5.6,16.9,16.3c0,8.6-4.6,12.3-7.7,13.5c4.6,2.2,6.8,6.1,6.8,14.9
		V47c0,6.8,0.3,9.3,0.8,12.5h-10.3c-0.9-2.7-1-7.4-1-12.6v-2.2c0-7.9-1.8-10.6-8.5-10.6H294.7z M294.7,25.5h5c6.4,0,8.9-2.8,8.9-8.8
		c0-5.1-2.4-8.1-7.9-8.1h-6V25.5z"/>
	<path class="st1" d="M326.5,59.5V46h10.7v13.5H326.5z"/>
	<path class="st1" d="M343.4,59.5V46h10.7v13.5H343.4z"/>
	<path class="st1" d="M360.3,59.5V46H371v13.5H360.3z"/>
</g>
<g>
	<path class="st0" d="M132,44.8l-3,15h-10.7l13.8-59.7H146l14,59.7h-11.2l-3-15H132z M143.9,35.5c-2.2-11.4-4-19.8-4.9-25.5h-0.3
		c-0.7,5.5-2.6,14.5-4.8,25.5H143.9z"/>
</g>
</svg>
